<svg viewBox="0 0 24 24" xmlns="http://www.w3.org/2000/svg" xmlns:xlink="http://www.w3.org/1999/xlink" width="24.000000" height="24.000000" fill="none">
	<rect id="FilterCTA" width="24.000000" height="24.000000" x="0.000000" y="0.000000" />
	<g id="elements">
		<path id="Ellipse 1592" d="M12.0137 20.5C7.31925 20.5 3.51367 16.6944 3.51367 12C3.51367 7.30558 7.31925 3.5 12.0137 3.5C16.7081 3.5 20.5137 7.30558 20.5137 12C20.5137 16.6944 16.7081 20.5 12.0137 20.5Z" fill-rule="nonzero" stroke="rgb(32,32,30)" stroke-width="1.500000" />
		<path id="Vector 4653" d="M22.5 12L20.5 12" stroke="rgb(32,32,30)" stroke-linecap="round" stroke-linejoin="round" stroke-width="1.500000" />
		<path id="Vector 4654" d="M3.5 12L1.5 12" stroke="rgb(32,32,30)" stroke-linecap="round" stroke-linejoin="round" stroke-width="1.500000" />
		<path id="Vector 4655" d="M2 0L0 0" stroke="rgb(32,32,30)" stroke-linecap="round" stroke-linejoin="round" stroke-width="1.500000" transform="matrix(-1.63927e-08,-1,1,-1.63927e-08,12,3.5)" />
		<path id="Vector 4656" d="M2 0L0 0" stroke="rgb(32,32,30)" stroke-linecap="round" stroke-linejoin="round" stroke-width="1.500000" transform="matrix(6.12323e-17,-1,1,6.12323e-17,12,22.5)" />
		<path id="Ellipse 1591" d="M12 15C10.3431 15 8.99995 13.6569 8.99995 12C8.99995 10.3431 10.3431 9 12 9C13.6568 9 15 10.3431 15 12C15 13.6569 13.6568 15 12 15Z" fill-rule="nonzero" stroke="rgb(32,32,30)" stroke-width="1.500000" />
	</g>
</svg>
