<svg width="36" height="36" viewBox="0 0 36 36" fill="none" xmlns="http://www.w3.org/2000/svg">
<mask id="mask0_44_5308" style="mask-type:alpha" maskUnits="userSpaceOnUse" x="0" y="0" width="36" height="36">
<rect width="36" height="36" fill="#D9D9D9"/>
</mask>
<g mask="url(#mask0_44_5308)">
<path d="M24.9173 19.1262H7.875C7.55575 19.1262 7.2885 19.0185 7.07325 18.803C6.85775 18.5877 6.75 18.3205 6.75 18.0012C6.75 17.682 6.85775 17.4147 7.07325 17.1995C7.2885 16.984 7.55575 16.8762 7.875 16.8762H24.9173L19.9789 11.9378C19.7559 11.7146 19.6458 11.4535 19.6485 11.1545C19.6515 10.8555 19.7616 10.5896 19.9789 10.3568C20.2116 10.1243 20.4789 10.0042 20.7806 9.99647C21.0826 9.98872 21.35 10.1012 21.5827 10.334L28.3009 17.0521C28.4414 17.1926 28.5404 17.3407 28.5979 17.4965C28.6556 17.6522 28.6845 17.8205 28.6845 18.0012C28.6845 18.182 28.6556 18.3502 28.5979 18.506C28.5404 18.6617 28.4414 18.8098 28.3009 18.9503L21.5827 25.6685C21.3595 25.8915 21.0946 26.0016 20.7881 25.9988C20.4814 25.9958 20.2116 25.8781 19.9789 25.6456C19.7616 25.4128 19.6491 25.1493 19.6414 24.8551C19.6336 24.5608 19.7461 24.2973 19.9789 24.0646L24.9173 19.1262Z" fill="#20201E"/>
</g>
</svg>
