<svg viewBox="0 0 20 20" xmlns="http://www.w3.org/2000/svg" xmlns:xlink="http://www.w3.org/1999/xlink" width="20.000000" height="20.000000" fill="none">
	<rect id="Icon" width="20.000000" height="20.000000" x="0.000000" y="0.000000" />
	<path id="Rectangle 2056 (Stroke)" d="M9.52145 1.66675L9.64554 1.66675C11.4589 1.66673 12.9045 1.66671 14.0379 1.8191C15.2082 1.97645 16.1697 2.30987 16.9301 3.0702C17.6904 3.83052 18.0238 4.79203 18.1811 5.96234C18.3335 7.09579 18.3335 8.5414 18.3335 10.3547L18.3335 10.4788C18.3335 12.2921 18.3335 13.7377 18.1811 14.8712C18.0238 16.0415 17.6904 17.003 16.9301 17.7633C16.1697 18.5236 15.2082 18.8571 14.0379 19.0144C12.9045 19.1668 11.4588 19.1668 9.64552 19.1667L9.52148 19.1667C7.70815 19.1668 6.26254 19.1668 5.12909 19.0144C3.95877 18.8571 2.99727 18.5236 2.23694 17.7633C1.47662 17.003 1.14319 16.0415 0.985849 14.8712C0.833461 13.7377 0.833477 12.2921 0.833497 10.4788L0.833497 10.3547C0.833477 8.54139 0.833461 7.09579 0.985849 5.96234C1.14319 4.79203 1.47662 3.83052 2.23694 3.0702C2.99727 2.30987 3.95877 1.97645 5.12909 1.8191C6.26254 1.66671 7.70814 1.66673 9.52145 1.66675ZM5.35117 3.47091C4.36567 3.6034 3.8145 3.84966 3.41546 4.24871C3.01641 4.64775 2.77015 5.19892 2.63765 6.18442C2.50193 7.1939 2.50016 8.52721 2.50016 10.4167C2.50016 12.3063 2.50193 13.6396 2.63765 14.6491C2.77015 15.6346 3.01641 16.1857 3.41546 16.5848C3.8145 16.9838 4.36567 17.2301 5.35117 17.3626C6.36064 17.4983 7.69396 17.5001 9.5835 17.5001C11.473 17.5001 12.8064 17.4983 13.8158 17.3626C14.8013 17.2301 15.3525 16.9838 15.7515 16.5848C16.1506 16.1857 16.3968 15.6346 16.5293 14.6491C16.6651 13.6396 16.6668 12.3063 16.6668 10.4167C16.6668 8.52721 16.6651 7.1939 16.5293 6.18442C16.3968 5.19892 16.1506 4.64775 15.7515 4.24871C15.3525 3.84966 14.8013 3.6034 13.8158 3.47091C12.8064 3.33519 11.473 3.33342 9.5835 3.33342C7.69396 3.33342 6.36064 3.33519 5.35117 3.47091Z" fill="rgb(255,255,255)" fill-rule="evenodd" />
	<path id="Ellipse 1119" d="M14.9998 6.66667C14.9998 7.58714 14.2536 8.33333 13.3332 8.33333C12.4127 8.33333 11.6665 7.58714 11.6665 6.66667C11.6665 5.74619 12.4127 5 13.3332 5C14.2536 5 14.9998 5.74619 14.9998 6.66667Z" fill="rgb(255,255,255)" fill-rule="nonzero" />
	<path id="Union" d="M3.22094 11.0442C5.56512 10.9963 7.85655 11.727 9.68701 13.114C11.3774 14.3948 12.5755 16.1608 13.0964 18.1426C13.1446 18.3259 13.107 18.5211 12.9943 18.6734C12.8815 18.8257 12.7058 18.9186 12.5164 18.926C11.6843 18.9587 10.7154 18.9587 9.59417 18.9587L9.53598 18.9587C7.7104 18.9587 6.27652 18.9587 5.15701 18.8082C4.0098 18.6539 3.09958 18.3314 2.38442 17.6162C1.76287 16.9947 1.43511 16.2322 1.25855 15.286C1.08563 14.3594 1.05007 13.2106 1.042 11.7834C1.04024 11.4716 1.26858 11.2062 1.57716 11.1613C2.12088 11.0824 2.67046 11.0432 3.22094 11.0442ZM12.1409 13.7155C11.9497 13.4923 12.0246 13.142 12.3043 13.0522C13.0187 12.8228 13.7502 12.706 14.4902 12.7087C15.5869 12.7078 16.6693 12.9728 17.7053 13.484C17.9338 13.5968 18.071 13.8369 18.052 14.091C17.9392 15.6025 17.6472 16.7523 16.7833 17.6162C16.1314 18.2681 15.3175 18.5938 14.3097 18.7631C14.387 18.4588 14.3876 18.1361 14.3058 17.8249C13.907 16.3076 13.1624 14.908 12.1409 13.7155Z" fill="rgb(255,255,255)" fill-rule="evenodd" />
</svg>
