<svg viewBox="0 0 20 20" xmlns="http://www.w3.org/2000/svg" xmlns:xlink="http://www.w3.org/1999/xlink" width="20.000000" height="20.000000" fill="none">
	<rect id="Icon" width="20.000000" height="20.000000" x="0.000000" y="0.000000" fill="rgb(255,255,255)" fill-opacity="0" />
	<path id="Vector" d="M11.25 1.25C10.2331 1.25 9.37374 2.09687 9.37374 3.125L9.37374 3.86C9.17488 3.78184 8.96234 3.74443 8.74874 3.75C8.25215 3.75262 7.77663 3.95097 7.42537 4.302C7.07411 4.65303 6.87545 5.12841 6.87249 5.625L6.87249 11.3869C6.27124 10.7819 5.66999 10.1769 5.07062 9.57125C4.71769 9.22198 4.24121 9.02607 3.74468 9.02607C3.24815 9.02607 2.77167 9.22198 2.41874 9.57125C1.69187 10.2981 1.69499 11.4931 2.41874 12.2206C4.03374 13.85 5.65624 15.475 7.26749 17.1056C7.79051 17.6282 8.41151 18.0424 9.0949 18.3246C9.77829 18.6068 10.5106 18.7513 11.25 18.75L12.5 18.75C15.6056 18.75 18.125 16.2306 18.125 13.125L18.125 6.875C18.125 5.84688 17.2781 5 16.25 5C16.0075 5 15.8106 5.03438 15.625 5.10875L15.625 4.375C15.625 3.34687 14.7781 2.5 13.75 2.5C13.5131 2.50012 13.2784 2.54574 13.0587 2.63438C12.8794 1.96438 12.2462 1.25 11.25 1.25ZM11.25 2.5C11.6062 2.5 11.8737 2.76813 11.8737 3.125L11.8737 10C11.8737 10.1658 11.9396 10.3247 12.0568 10.4419C12.174 10.5592 12.333 10.625 12.4987 10.625C12.6645 10.625 12.8235 10.5592 12.9407 10.4419C13.0579 10.3247 13.1237 10.1658 13.1237 10L13.1237 4.375C13.1237 4.01813 13.3912 3.75 13.7487 3.75C14.1056 3.75 14.3737 4.01813 14.3737 4.375L14.3737 10C14.3737 10.1658 14.4396 10.3247 14.5568 10.4419C14.674 10.5592 14.833 10.625 14.9987 10.625C15.1645 10.625 15.3235 10.5592 15.4407 10.4419C15.5579 10.3247 15.6237 10.1658 15.6237 10L15.6237 6.875C15.6237 6.51813 15.8919 6.25 16.2487 6.25C16.6062 6.25 16.8737 6.51813 16.8737 6.875L16.8737 13.125C16.8737 15.5594 14.9337 17.5 12.4987 17.5L11.2487 17.5C10.674 17.5021 10.1045 17.3904 9.5732 17.1712C9.04187 16.9521 8.55923 16.6298 8.15312 16.2231C6.53812 14.595 4.91999 12.9675 3.30437 11.3406C3.05062 11.085 3.04999 10.7081 3.30437 10.4556C3.36134 10.3958 3.42989 10.3481 3.50585 10.3155C3.58181 10.283 3.66359 10.2662 3.74624 10.2662C3.82889 10.2662 3.91067 10.283 3.98663 10.3155C4.06259 10.3481 4.13114 10.3958 4.18812 10.4556L7.05687 13.3425C7.44937 13.7375 8.12374 13.46 8.12499 12.9031L8.12499 5.625C8.12499 5.26813 8.39374 5 8.75124 5C9.10812 5 9.37624 5.26813 9.37624 5.625L9.37624 10C9.37624 10.1658 9.44209 10.3247 9.5593 10.4419C9.67651 10.5592 9.83548 10.625 10.0012 10.625C10.167 10.625 10.326 10.5592 10.4432 10.4419C10.5604 10.3247 10.6262 10.1658 10.6262 10L10.6262 3.125C10.6262 2.76813 10.8937 2.5 11.25 2.5Z" fill="rgb(71,227,133)" fill-rule="nonzero" />
</svg>
