<svg width="24" height="24" viewBox="0 0 24 24" fill="none" xmlns="http://www.w3.org/2000/svg">
<path fill-rule="evenodd" clip-rule="evenodd" d="M12.0003 1.25C12.8662 1.25003 13.6402 1.52716 14.4759 1.99609C15.2858 2.45055 16.2143 3.12115 17.3812 3.96484L18.89 5.05664C19.8264 5.73367 20.5748 6.27391 21.139 6.77441C21.7215 7.29127 22.1575 7.80696 22.4339 8.45508C22.711 9.10463 22.7777 9.77046 22.7406 10.5381C22.7047 11.2789 22.5671 12.1726 22.3958 13.2871L22.0814 15.3389C21.838 16.9226 21.6434 18.1835 21.3587 19.166C21.0643 20.182 20.6498 20.9889 19.9085 21.6055C19.1704 22.2193 18.2911 22.4926 17.2171 22.623C16.1722 22.75 14.8538 22.75 13.1888 22.75H10.8109C9.14626 22.75 7.82834 22.7499 6.78353 22.623C5.70937 22.4926 4.82932 22.2194 4.09115 21.6055C3.34997 20.989 2.93533 20.1819 2.64095 19.166C2.35629 18.1836 2.16262 16.9225 1.91927 15.3389L1.60384 13.2871C1.43257 12.1726 1.29498 11.2789 1.25912 10.5381C1.22195 9.77046 1.28969 9.10463 1.56673 8.45508C1.84318 7.80701 2.27916 7.29124 2.86165 6.77441C3.42572 6.27401 4.17357 5.73348 5.1097 5.05664L6.61947 3.96484C7.78613 3.12129 8.71402 2.45052 9.52376 1.99609C10.3596 1.52703 11.1343 1.25 12.0003 1.25ZM12.0003 14C11.448 14 11.0003 14.4477 11.0003 15V18C11.0003 18.5523 11.448 19 12.0003 19C12.5525 18.9999 13.0003 18.5522 13.0003 18V15C13.0003 14.4478 12.5525 14.0001 12.0003 14Z" fill="#CF604A"/>
</svg>
