<svg width="17" height="24" viewBox="0 0 17 24" fill="none" xmlns="http://www.w3.org/2000/svg">
<g clip-path="url(#clip0_44_10724)">
<path d="M16.8341 3.77708C16.7449 3.63016 16.6216 3.50581 16.474 3.41411C16.3265 3.32241 16.159 3.26594 15.9849 3.24927C15.8023 3.23067 15.6177 3.25376 15.4458 3.31671C15.2738 3.37965 15.1192 3.48074 14.994 3.612C14.8243 3.79067 14.7086 4.02782 14.5964 4.25764L14.5944 4.26195C14.5562 4.34028 14.5199 4.4143 14.4819 4.48572L9.28461 1.85658C9.05951 1.74286 8.82956 1.58534 8.83022 1.27913C8.83022 1.04716 8.96497 0.823825 9.18079 0.696511C9.369 0.585381 9.58216 0.570491 9.75137 0.656806C10.7249 1.15312 11.7088 1.671 12.6602 2.17055L12.6699 2.17551C13.1185 2.41137 13.6271 2.67873 14.1225 2.93745L14.5595 3.16511C14.6478 3.21064 14.7362 3.21064 14.8106 3.16511C14.8975 3.11224 14.9533 3.00262 14.9496 2.89214C14.9483 2.84041 14.9328 2.78997 14.9047 2.74612C14.8766 2.70226 14.837 2.66661 14.7899 2.64291L10.5687 0.441883C10.4998 0.406062 10.4313 0.369378 10.3626 0.332695C10.234 0.264074 10.0882 0.18596 9.94554 0.116908C9.3754 -0.159299 8.67802 0.0707296 8.39107 0.629833C8.10832 1.18052 8.35131 1.85334 8.94332 2.16192C9.04891 2.21694 9.15737 2.27132 9.26208 2.32376L9.27644 2.33088L9.44565 2.41719L14.2807 4.86184L13.9714 5.44123C13.619 6.10125 13.2671 6.76213 12.9155 7.42387C12.7282 7.77668 12.5226 8.15971 12.2683 8.62904C11.8595 9.37694 11.758 10.249 11.9844 11.0674C12.0383 11.2616 12.115 11.4496 12.1892 11.6313C12.2133 11.6904 12.2374 11.7493 12.2608 11.8087C12.4224 12.221 12.5187 12.6551 12.5464 13.0958C12.5935 13.8125 12.4417 14.5438 12.0956 15.2694C12.0613 15.3409 12.0293 15.4147 11.9942 15.4952C11.8353 15.862 11.671 16.2392 11.2983 16.3883C11.0363 16.4934 10.7607 16.4638 10.4317 16.2953L1.76938 11.8533C1.73647 11.8365 1.70311 11.8199 1.66976 11.8035L1.66688 11.802C1.6026 11.77 1.53633 11.7372 1.47338 11.7016C1.20101 11.548 0.899037 11.2877 0.864356 11.0178C0.832547 10.763 0.935486 10.5545 1.07333 10.3087C1.39849 9.72934 1.70466 9.26389 2.14204 8.87374C2.72455 8.35478 3.42525 7.99614 4.16835 7.83689C4.3369 7.80064 4.51009 7.77 4.67642 7.74043H4.68239C4.89268 7.70332 5.13081 7.66145 5.35856 7.60664C6.13544 7.42231 6.83305 7.00339 7.35218 6.40946C7.54768 6.18569 7.70562 5.93085 7.85782 5.68355L7.87196 5.66047C7.89847 5.61731 7.92497 5.57415 7.95192 5.53099L8.74164 4.27339L9.17306 3.58287C9.25965 3.44455 9.24375 3.31098 9.20001 3.23243C9.16555 3.17029 9.11165 3.13382 9.05245 3.13231H9.04825C8.98198 3.13231 8.91704 3.17719 8.86579 3.25876L7.64554 5.20472C7.6124 5.25781 7.57949 5.31104 7.54679 5.36441C7.40696 5.59141 7.2625 5.82597 7.08799 6.03334C6.61956 6.58402 5.97149 6.96056 5.25253 7.09976C5.12816 7.12436 5.0007 7.14702 4.877 7.16925L4.86109 7.17205C4.59977 7.21888 4.33094 7.267 4.06873 7.33281C3.31503 7.5202 2.61563 7.87462 2.02474 8.36859C1.55732 8.76455 1.16853 9.25331 0.8014 9.90844L0.73513 10.0245L0.731595 10.0308C0.644119 10.1842 0.551562 10.3428 0.497883 10.5154C0.389427 10.8638 0.419239 11.2393 0.581384 11.5672C0.810677 12.0165 1.24718 12.2331 1.66909 12.4426C1.7305 12.4731 1.79169 12.5035 1.85244 12.5346L5.35326 14.3299C4.85469 15.1823 3.03823 18.3545 1.7104 20.674C0.825257 22.2201 0.142014 23.4145 0.056084 23.558C0.00987053 23.633 -0.00860921 23.7212 0.00373076 23.8079C0.00789665 23.8422 0.0197801 23.8752 0.0385307 23.9046C0.0572813 23.9339 0.0824354 23.9588 0.112193 23.9775C0.13563 23.9913 0.162384 23.9987 0.189728 23.9991C0.238768 23.9991 0.310781 23.976 0.375505 23.8664L5.86641 14.5938L9.07675 16.2403C9.17983 16.2931 9.28292 16.3464 9.38601 16.4002L9.47437 16.4466C9.73613 16.5823 10.007 16.7228 10.2765 16.8566C10.5207 16.9792 10.7948 17.0336 11.0687 17.0137C11.3426 16.9938 11.6055 16.9005 11.8285 16.7439C12.1718 16.5024 12.3456 16.1158 12.5133 15.7418L12.5215 15.7235C12.5526 15.6544 12.5846 15.583 12.6171 15.5152C12.9551 14.807 13.1278 14.0893 13.1307 13.382C13.1333 12.7208 12.9867 12.0616 12.6547 11.2444C12.3394 10.4675 12.3869 9.6277 12.7887 8.87633C12.8747 8.7155 12.9613 8.55488 13.0485 8.39448L13.0898 8.31788C13.1826 8.14525 13.2785 7.96873 13.3715 7.79373C13.7187 7.13925 14.0803 6.46168 14.3708 5.91639C14.4742 5.72218 14.5752 5.52495 14.6869 5.30506L14.7835 5.1156L15.2694 5.36117C15.5299 5.4928 15.7519 5.59098 16.0357 5.55689C16.2186 5.53392 16.3914 5.46183 16.5348 5.34865C16.6695 5.24076 16.7497 5.0992 16.8142 4.98592L16.8445 4.93348C16.9478 4.75714 17.0014 4.55711 16.9995 4.35391C16.9977 4.1507 16.9406 3.95163 16.8341 3.77708ZM16.5334 4.5988C16.4497 4.80207 16.2198 5.26148 15.8928 5.13826C15.8723 5.13049 15.8266 5.11863 15.7758 5.10503C15.7182 5.0915 15.6616 5.07471 15.6061 5.05475L14.9801 4.73798C15.1126 4.49004 15.2262 4.28785 15.3397 4.10227C15.5308 3.79089 15.9527 3.75356 16.2498 3.8977C16.4811 4.00927 16.6759 4.25181 16.5334 4.59966V4.5988Z" fill="#17B26A"/>
<path d="M5.09865 8.83203C4.19915 8.84023 3.33521 9.39588 2.9493 10.215C2.93379 10.2498 2.92578 10.2874 2.92578 10.3254C2.92578 10.3634 2.93379 10.4009 2.9493 10.4358C2.96304 10.4702 2.98384 10.5015 3.01043 10.5279C3.03702 10.5542 3.06884 10.5749 3.10393 10.5887C3.13782 10.6013 3.17371 10.608 3.20996 10.6084C3.3087 10.6084 3.39927 10.5555 3.48653 10.4468C3.56583 10.3484 3.6279 10.2202 3.67849 10.1157L3.68246 10.1075C3.70058 10.0704 3.71759 10.0357 3.73283 10.0079C3.8566 9.78884 4.03384 9.60309 4.2488 9.46711C4.46377 9.33113 4.70979 9.24914 4.96501 9.22843C4.9871 9.22692 5.01802 9.22649 5.04873 9.22692H5.05381C5.20336 9.22692 5.41078 9.22843 5.42227 9.06853C5.42388 9.04432 5.42018 9.02006 5.41141 8.99736C5.40265 8.97466 5.38903 8.95405 5.37146 8.9369C5.30519 8.86807 5.18525 8.83203 5.10086 8.83203H5.09865Z" fill="#17B26A"/>
</g>
<defs>
<clipPath id="clip0_44_10724">
<rect width="17" height="24" fill="white"/>
</clipPath>
</defs>
</svg>
