<svg viewBox="0 0 20 20" xmlns="http://www.w3.org/2000/svg" xmlns:xlink="http://www.w3.org/1999/xlink" width="20.000000" height="20.000000" fill="none">
	<rect id="Icon" width="20.000000" height="20.000000" x="0.000000" y="0.000000" fill="rgb(255,255,255)" fill-opacity="0" />
	<path id="Vector" d="M7.49609 8.5L2.3418 8.5C1.92773 8.5 1.5918 8.16406 1.5918 7.75L1.5918 2.5957C1.5918 2.18164 1.92773 1.8457 2.3418 1.8457L7.49609 1.8457C7.91016 1.8457 8.24609 2.18164 8.24609 2.5957L8.24609 7.75C8.24609 8.16406 7.91016 8.5 7.49609 8.5ZM2.3418 2.43164C2.25195 2.43164 2.17773 2.50586 2.17773 2.5957L2.17773 7.75C2.17773 7.83984 2.25195 7.91406 2.3418 7.91406L7.49609 7.91406C7.58594 7.91406 7.66016 7.83984 7.66016 7.75L7.66016 2.5957C7.66016 2.50586 7.58594 2.43164 7.49609 2.43164L2.3418 2.43164ZM7.49609 18.1543L2.3418 18.1543C1.92773 18.1543 1.5918 17.8184 1.5918 17.4043L1.5918 12.25C1.5918 11.8359 1.92773 11.5 2.3418 11.5L7.49609 11.5C7.91016 11.5 8.24609 11.8359 8.24609 12.25L8.24609 17.4043C8.24609 17.8184 7.91016 18.1543 7.49609 18.1543ZM2.3418 12.0859C2.25195 12.0859 2.17773 12.1602 2.17773 12.25L2.17773 17.4043C2.17773 17.4941 2.25195 17.5684 2.3418 17.5684L7.49609 17.5684C7.58594 17.5684 7.66016 17.4941 7.66016 17.4043L7.66016 12.25C7.66016 12.1602 7.58594 12.0859 7.49609 12.0859L2.3418 12.0859ZM9.73438 3.13867L18.1152 3.13867L18.1152 3.72461L9.73438 3.72461L9.73438 3.13867ZM9.73438 6.62109L15.1523 6.62109L15.1523 7.20703L9.73438 7.20703L9.73438 6.62109ZM9.73438 12.793L18.1152 12.793L18.1152 13.3789L9.73438 13.3789L9.73438 12.793ZM9.73438 16.2754L15.1523 16.2754L15.1523 16.8613L9.73438 16.8613L9.73438 16.2754Z" fill="rgb(207,96,74)" fill-rule="nonzero" />
</svg>
